<svg width="70" height="84" viewBox="0 0 70 84" fill="none" xmlns="http://www.w3.org/2000/svg">
<path d="M11.5724 81.4461H13.497C13.5138 81.9752 13.9776 82.3294 14.9093 82.3294C15.8874 82.3294 16.3048 81.9289 16.3048 81.4461C16.3048 80.8369 15.5986 80.7568 14.7491 80.643C13.5307 80.4828 11.7326 80.2741 11.7326 78.3326C11.7326 76.7115 12.9679 75.6533 14.8777 75.6533C16.7875 75.6533 18.0059 76.7453 18.0544 78.1408H16.1614C16.113 77.6601 15.664 77.3229 14.9093 77.3229C14.0746 77.3229 13.6572 77.7234 13.6572 78.1893C13.6572 78.7985 14.3802 78.8954 15.2297 79.0072C16.2879 79.1526 18.2294 79.3592 18.2294 81.3344C18.2294 82.9386 16.9287 83.9989 14.9072 83.9989C12.8857 83.9989 11.6188 82.9239 11.5703 81.4482L11.5724 81.4461Z" fill="#DE692D"/>
<path d="M19.8613 73.775C19.8613 73.0372 20.3904 72.4912 21.1282 72.4912C21.866 72.4912 22.3951 73.0372 22.3951 73.775C22.3951 74.5128 21.866 75.0419 21.1282 75.0419C20.3904 75.0419 19.8613 74.5128 19.8613 73.775ZM20.167 76.0685H22.0768V83.9946H20.167V76.0685Z" fill="#DE692D"/>
<path d="M24.0283 79.4724C24.0283 76.9849 25.4723 75.8613 27.3505 75.8613C28.5372 75.8613 29.5174 76.3588 30.095 77.2884C30.6557 76.3567 31.6359 75.8613 32.8396 75.8613C34.7178 75.8613 36.1617 76.9849 36.1617 79.4724V83.9982H34.2519V79.4724C34.2519 78.1717 33.5774 77.6426 32.6478 77.6426C31.7182 77.6426 31.0584 78.1886 31.0584 79.4724V83.9982H29.1486V79.4724C29.1486 78.1886 28.4593 77.6426 27.5444 77.6426C26.6295 77.6426 25.9402 78.1717 25.9402 79.4724V83.9982H24.0304V79.4724H24.0283Z" fill="#DE692D"/>
<path d="M37.7891 73.775C37.7891 73.0372 38.3182 72.4912 39.0559 72.4912C39.7937 72.4912 40.3228 73.0372 40.3228 73.775C40.3228 74.5128 39.7937 75.0419 39.0559 75.0419C38.3182 75.0419 37.7891 74.5128 37.7891 73.775ZM38.0947 76.0685H40.0045V83.9946H38.0947V76.0685Z" fill="#DE692D"/>
<path d="M41.9561 72.6055H43.8659V83.9972H41.9561V72.6055Z" fill="#DE692D"/>
<path d="M45.4961 79.3901V83.9961H47.4059V79.3901C47.4059 78.1106 48.0446 77.6447 48.97 77.6426V75.8613C46.9042 75.8655 45.4961 77.0039 45.4961 79.3922V79.3901Z" fill="#DE692D"/>
<path d="M57.9658 77.6384L57.9616 77.6342V75.8613H50.6006V77.6363H55.3983L50.6006 82.2149L50.6069 82.2212H50.6006V83.9961H57.9616V82.2212H53.1618L57.9658 77.6384Z" fill="#DE692D"/>
<path d="M59.7944 0H9.7472C4.36397 0 0 4.36408 0 9.74744V59.7958C0 65.1792 4.36397 69.5432 9.7472 69.5432H59.7944C65.1776 69.5432 69.5416 65.1792 69.5416 59.7958V9.74744C69.5416 4.36408 65.1776 0 59.7944 0Z" fill="url(#paint0_linear_1147_4067)"/>
<path d="M65.2119 24.7733C64.3561 17.7326 58.4812 12.4077 51.4954 12.0684C52.6316 12.6481 53.694 13.4175 54.6341 14.3808C56.8285 16.6343 57.9563 19.5265 58.0322 22.4398C58.2366 24.0714 57.9479 25.7493 57.1679 27.2334C56.7822 27.9712 56.2741 28.6605 55.6439 29.2739C53.4916 31.3693 50.473 32.0291 47.777 31.2702C46.4489 30.8971 45.201 30.1804 44.1702 29.1243C41.978 26.875 41.3561 23.6793 42.2857 20.8925C42.682 19.7015 43.3608 18.5863 44.322 17.6525C46.0716 15.9492 48.3904 15.1924 50.648 15.3779C47.7685 13.5756 44.0564 13.6199 41.2128 15.5255C37.6187 18.5484 35.5824 23.205 36.1832 28.1504L38.0023 43.1088C38.953 50.9295 33.2236 58.023 25.207 58.9505C50.5025 58.0588 67.5749 44.2008 65.214 24.7775L65.2119 24.7733Z" fill="white"/>
<path d="M4.32723 44.7651C5.18306 51.8058 11.0579 57.1306 18.0437 57.47C16.9075 56.8903 15.8451 56.1209 14.905 55.1575C12.7106 52.9041 11.5828 50.0119 11.5069 47.0986C11.3025 45.467 11.5913 43.789 12.3712 42.305C12.757 41.5672 13.265 40.8779 13.8953 40.2645C16.0475 38.1691 19.0661 37.5093 21.7622 38.2682C23.0902 38.6413 24.3381 39.358 25.3689 40.4141C27.5612 42.6634 28.183 45.8591 27.2534 48.6459C26.8571 49.8369 26.1783 50.9521 25.2171 51.8859C23.4675 53.5892 21.1487 54.346 18.8911 54.1605C21.7706 55.9628 25.4827 55.9185 28.3263 54.0129C31.9204 50.99 33.9567 46.3334 33.3559 41.388L31.5368 26.4296C30.5861 18.6089 36.3155 11.5154 44.3321 10.5879C19.0366 11.4796 1.96421 25.3376 4.32512 44.7608L4.32723 44.7651Z" fill="white"/>
<defs>
<linearGradient id="paint0_linear_1147_4067" x1="34.7687" y1="0" x2="34.7687" y2="69.5411" gradientUnits="userSpaceOnUse">
<stop stop-color="#F2E51A"/>
<stop offset="1" stop-color="#FC6000"/>
</linearGradient>
</defs>
</svg>
